<svg xmlns="http://www.w3.org/2000/svg" viewBox="0 0 200 200" fill="none">
  <path 
    d="M40 70C40 30 90 10 130 30C110 30 80 40 70 70C65 85 75 95 85 100C60 90 40 85 40 70Z" 
    fill="#0EA5E9"
  />
  
  <path 
    d="M85 80C85 60 120 50 145 70C130 65 110 70 105 90C100 105 110 115 115 120C95 110 85 100 85 80Z" 
    fill="#F97316"
  />

  <path 
    d="M30 100C30 150 70 180 100 180C130 180 170 150 170 100C170 120 160 140 140 150C130 155 115 160 100 160C85 160 70 155 60 150C40 140 30 120 30 100Z" 
    fill="#1D4ED8"
  />
</svg>
